<svg width="512" height="512" viewBox="0 0 512 512" fill="none" xmlns="http://www.w3.org/2000/svg" xmlns:xlink="http://www.w3.org/1999/xlink" class=""><rect id="_r_9_" width="512" height="512" x="0" y="0" rx="128" fill="url(#_r_a_)" stroke="#FFFFFF" stroke-width="0" stroke-opacity="100%" paint-order="stroke"></rect><clipPath id="clip"><use xlink:href="#_r_9_"></use></clipPath><defs><radialGradient id="_r_a_" cx="50%" cy="50%" r="100%" fx="50%" fy="0%" gradientUnits="objectBoundingBox"><stop stop-color="#4d4d4d"></stop><stop offset="1" stop-color="#000000"></stop></radialGradient><radialGradient id="_r_b_" cx="0" cy="0" r="1" gradientUnits="userSpaceOnUse" gradientTransform="translate(256) rotate(90) scale(512)"><stop stop-color="white"></stop><stop offset="1" stop-color="white" stop-opacity="0"></stop></radialGradient></defs><svg xmlns="http://www.w3.org/2000/svg" fill="none" viewBox="0 0 16 16" width="352" height="352" x="80" y="80" alignment-baseline="middle" style="color: rgb(230, 230, 230); width: 352px; height: 352px;"><path fill="currentColor" d="M8.129 7.657 5.733 8.686l2.219.949 2.572-.949L8.13 7.657ZM4.527 8.943l-.08 4.63 3.505 1.544V10.31L4.527 8.943Zm7.203 0L8.563 10.15v4.534l3.167-1.286V8.943ZM4.182 1.055 1.786 2.084l2.219.948 2.572-.948-2.395-1.03ZM.58 2.34.5 6.971l3.505 1.544V3.708L.58 2.34Zm7.203 0L4.616 3.547V8.08l3.167-1.286V2.341ZM11.899.883l-2.396 1.03 2.219.948 2.572-.949L11.899.883ZM8.298 2.17l-.08 4.63 3.504 1.543V3.536L8.298 2.17Zm7.202 0-3.167 1.205V7.91L15.5 6.623V2.17Z"></path></svg></svg>